<?xml version="1.0" encoding="UTF-8"?>
<svg width="700pt" height="700pt" version="1.1" viewBox="0 0 700 700" xmlns="http://www.w3.org/2000/svg">
 <path d="m542.5 35h-385c-13.926 0-27.277 5.5312-37.125 15.375-9.8438 9.8477-15.375 23.199-15.375 37.125v385c0 13.926 5.5312 27.277 15.375 37.125 9.8477 9.8438 23.199 15.375 37.125 15.375h385c13.926 0 27.277-5.5312 37.125-15.375 9.8438-9.8477 15.375-23.199 15.375-37.125v-385c0-13.926-5.5312-27.277-15.375-37.125-9.8477-9.8438-23.199-15.375-37.125-15.375zm17.5 52.5v262.5h-192.5v-280h175c4.6406 0 9.0938 1.8438 12.375 5.125s5.125 7.7344 5.125 12.375zm-402.5-17.5h175v105h-192.5v-87.5c0-4.6406 1.8438-9.0938 5.125-12.375s7.7344-5.125 12.375-5.125zm-17.5 402.5v-262.5h192.5v280h-175c-4.6406 0-9.0938-1.8438-12.375-5.125s-5.125-7.7344-5.125-12.375zm402.5 17.5h-175v-105h192.5v87.5c0 4.6406-1.8438 9.0938-5.125 12.375s-7.7344 5.125-12.375 5.125z"/>
</svg>
